<svg width="95" height="128" viewBox="0 0 95 128" fill="none" xmlns="http://www.w3.org/2000/svg">
<path d="M84.4103 22.2444L84.1037 22.0698L83.7951 22.2444L37.7256 48.7583V121.257L38.0172 121.438L48.3878 127.823V54.9015L94.7702 28.2066L84.4103 22.2444Z" fill="#06000E"/>
<path d="M65.546 11.0346L65.2395 10.8579L64.933 11.0346L18.8613 37.5485V110.047L19.1551 110.226L29.5257 116.612V43.6917L75.9059 16.9968L65.546 11.0346Z" fill="#06000E"/>
<path d="M46.6847 0.176675L46.3781 0L46.0695 0.176675L0 26.6949V98.429L10.6622 104.994V32.8338L57.0446 6.13891L46.6847 0.176675Z" fill="#06000E"/>
<path d="M73.0615 76.2314L68.1743 79.0412L67.8656 79.22V79.2243L61.7778 82.7322L56.8926 85.542L56.584 85.7187V97.9943L83.4853 82.5151V82.5066L94.7691 76.0143V63.7344L79.3516 72.6064L73.0615 76.2314Z" fill="#06000E"/>
</svg>
